<?xml version="1.0" standalone="no"?>
<!DOCTYPE svg PUBLIC "-//W3C//DTD SVG 1.1//EN" "http://www.w3.org/Graphics/SVG/1.1/DTD/svg11.dtd" >
<svg xmlns="http://www.w3.org/2000/svg">
<metadata>Generated by IcoMoon</metadata>
<defs>
<font id="icomoon" horiz-adv-x="1024">
<font-face units-per-em="1024" ascent="960" descent="-64" />
<missing-glyph horiz-adv-x="1024" />
<glyph unicode="&#x20;" horiz-adv-x="512" d="" />
<glyph unicode="&#xe900;" glyph-name="arrow" horiz-adv-x="1365" d="M682.663 58.889c-24.468 0-48.935 9.344-67.591 27.989l-587.064 587.069c-37.345 37.344-37.345 97.893 0 135.222 37.33 37.33 97.866 37.33 135.214 0l519.441-519.47 519.444 519.451c37.345 37.33 97.876 37.33 135.202 0 37.362-37.33 37.362-97.878 0-135.223l-587.054-587.068c-18.666-18.65-43.133-27.972-67.593-27.972z" />
<glyph unicode="&#xe901;" glyph-name="bit" horiz-adv-x="819" d="M692.202 632.162c-6.821 6.628-16.39 9.641-25.755 8.101-9.382-1.534-17.484-7.424-21.836-15.876-14.968-29.079-33.98-55.8-56.348-79.422 2.229 17.064 3.352 34.23 3.352 51.442 0 33.026-4.426 67.013-13.16 101.027-28.716 111.721-104.016 206.204-206.586 259.218-8.929 4.614-19.57 4.452-28.356-0.432-8.786-4.886-14.54-13.844-15.328-23.864-7.995-101.528-60.292-193.896-143.558-253.48-1.102-0.795-2.196-1.598-3.29-2.398-2.266-1.658-4.402-3.227-6.398-4.542-0.312-0.208-0.623-0.42-0.926-0.638-52.368-37.494-95.578-87.474-124.964-144.552-29.86-58.058-45-120.36-45-185.17 0-33.016 4.426-67.002 13.156-101.022 46.070-179.314 207.438-304.55 392.418-304.55 223.622 0 405.55 181.939 405.55 405.572 0 110.28-43.672 213.48-122.971 290.588v0z" />
<glyph unicode="&#xe902;" glyph-name="notification" d="M713.143-9.143c0-14.548-5.78-28.504-16.067-38.788-10.288-10.291-24.241-16.069-38.79-16.069h-292.571c-14.549 0-28.502 5.778-38.79 16.069-10.288 10.284-16.067 24.24-16.067 38.788s5.78 28.504 16.067 38.788c10.288 10.291 24.241 16.069 38.79 16.069h292.571c14.549 0 28.502-5.778 38.79-16.069 10.288-10.284 16.067-24.24 16.067-38.788zM952.32 164.608c-7.929-13.97-19.434-25.571-33.339-33.616-13.904-8.038-29.696-12.229-45.758-12.134h-722.444c-16.063-0.095-31.86 4.096-45.765 12.134-13.904 8.046-25.413 19.653-33.34 33.624-8.004 13.963-12.196 29.791-12.157 45.89s4.309 31.904 12.381 45.834c26.011 44.754 57.029 130.194 57.029 283.090v18.286c-0.121 101.718 40.168 199.319 112.005 271.331s169.34 112.541 271.057 112.669l2.926-0.009c209.637-1.559 380.191-175.671 380.191-388.123v-14.153c0-152.905 30.998-238.354 57-283.108 8.068-13.928 12.332-29.731 12.368-45.83 0.044-16.091-4.155-31.92-12.156-45.883zM842.818 228.571c-47.031 98.515-57.424 221.472-57.424 310.857v14.153c0 152.403-121.699 277.303-271.291 278.41-0.696 0.005-1.393 0.008-2.089 0.009-35.96-0.060-71.556-7.202-104.755-21.019s-63.353-34.037-88.738-59.507c-25.384-25.47-45.504-55.69-59.21-88.935s-20.729-68.865-20.669-104.825v-18.286c0-89.385-10.405-212.348-57.463-310.857h661.639z" />
<glyph unicode="&#xe904;" glyph-name="quote" d="M323.367 293.209h-323.367l304.347 714.419h206.067l-187.047-714.419zM836.953 293.209h-323.367l304.345 714.419h206.069l-187.047-714.419z" />
<glyph unicode="&#xe905;" glyph-name="check" d="M512 960c-282.306 0-512-229.694-512-512s229.694-512 512-512c282.307 0 512 229.693 512 512s-229.693 512-512 512zM798.157 582.737l-327.22-324.653c-19.248-19.246-50.045-20.531-70.576-1.28l-173.233 157.834c-20.531 19.246-21.815 51.327-3.85 71.858 19.248 20.531 51.329 21.815 71.86 2.567l137.303-125.753 292.572 292.57c20.531 20.531 52.613 20.531 73.144 0s20.531-52.612 0-73.143z" />
<glyph unicode="&#xe906;" d="M511.991-29.858c263.919 0 477.867 213.948 477.867 477.867s-213.948 477.866-477.867 477.866c-263.918 0-477.866-213.948-477.866-477.866s213.948-477.867 477.866-477.867z" />
<glyph unicode="&#xe907;" d="M511.996 38.426c226.214 0 409.6 183.381 409.6 409.6 0 226.215-183.386 409.6-409.6 409.6-226.216 0-409.6-183.384-409.6-409.6 0-226.219 183.384-409.6 409.6-409.6z" />
<glyph unicode="&#xe908;" d="M573.013 263.97c5.696-3.721 15.458-3.721 34.871-3.721h131.584c19.413 0 29.175 0 34.991 3.831 6.276 4.070 10.227 10.931 10.577 18.368 0.333 6.635-4.326 14.682-13.466 30.447-0.316 0.538-0.627 1.084-0.947 1.638l-66.662 114.018c-9.263 15.663-13.939 23.573-19.942 26.628-6.622 3.371-14.417 3.371-21.039 0-6.046-3.136-10.927-11.392-20.574-28.011l-65.899-113.143c-9.617-16.593-14.421-24.887-14.071-31.693 0.465-7.441 4.301-14.293 10.577-18.364z" />
<glyph unicode="&#xe909;" d="M607.019 562.607c2.56 10.579 2.56 21.737 0 32.316-2.304 9.691-7.59 18.924-18.010 37.129l-0.239 0.415-46.613 81.368c-9.647 16.97-14.528 25.458-20.689 28.595-6.626 3.371-14.528 3.371-21.158 0-6.161-3.137-11.042-11.625-20.689-28.595l-226.737-399.655c-9.532-16.742-14.299-25.114-13.949-31.966 0.464-7.441 4.301-14.182 10.578-18.253 5.811-3.721 15.343-3.721 34.64-3.721h91.83c21.621 0 32.433 0 42.078 2.671 10.577 3.145 20.228 8.721 28.245 16.397 7.369 7.019 12.685 16.32 23.172 34.679l0.307 0.542 119.1 210.534c10.581 18.479 15.812 27.778 18.133 37.542z" />
<glyph unicode="&#xe90a;" d="M1024 448c0-282.769-229.231-512-512-512-149.065 0-283.251 63.697-376.811 165.367-24.576 26.684-46.331 56.004-64.847 87.458-44.701 76.023-70.342 164.612-70.342 259.174 0 282.77 229.23 512 512 512 94.583 0 183.172-25.642 259.174-70.363 31.454-18.495 60.753-40.25 87.441-64.847 101.666-93.519 165.385-227.725 165.385-376.79z" />
<glyph unicode="&#xe90b;" d="M1024.009 447.979c0-276.395-218.991-501.632-492.941-511.642-273.953 10.010-492.943 235.247-492.943 511.642 0 276.398 218.989 501.636 492.943 511.646 273.95-10.010 492.941-235.248 492.941-511.646z" />
<glyph unicode="&#xe90c;" d="M858.603 824.779l-723.423-723.424c-24.576 26.688-46.331 56.009-64.847 87.458l700.832 700.812c31.454-18.495 60.753-40.25 87.437-64.847z" />
<glyph unicode="&#xe90d;" d="M988.681 635.183l-663.884-663.889c-46.999 18.475-90.613 43.699-129.63 74.483l719.056 719.056c30.784-39.017 56.009-82.63 74.458-129.651z" />
<glyph unicode="&#xe90e;" d="M909.858 448.021c0-219.725-178.138-397.858-397.858-397.858-76.527 0-147.998 21.611-208.665 59.059-26.436 16.299-50.803 35.631-72.662 57.489-16.071 16.051-30.783 33.502-43.928 52.122-18.097 25.638-33.248 53.517-44.931 83.132-17.303 43.78-27.042 91.388-27.627 141.163-0.042 1.63-0.042 3.264-0.042 4.894 0 219.719 178.113 397.854 397.854 397.854 1.63 0 3.281 0 4.911-0.042 49.779-0.585 97.365-10.345 141.146-27.627 29.615-11.703 57.489-26.833 83.132-44.931 18.62-13.166 36.049-27.857 52.122-43.927 21.858-21.838 41.19-46.226 57.489-72.662 37.449-60.667 59.059-132.137 59.059-208.664z" />
<glyph unicode="&#xe90f;" d="M793.31 729.348l-562.637-562.636c-16.071 16.051-30.783 33.502-43.928 52.122-18.097 25.638-33.248 53.517-44.931 83.132-17.303 43.78-27.042 91.388-27.627 141.163-0.042 1.63-0.042 3.264-0.042 4.894 0 219.719 178.114 397.854 397.854 397.854 1.63 0 3.281 0 4.911-0.042 49.779-0.585 97.365-10.345 141.146-27.627 29.615-11.703 57.489-26.833 83.132-44.931 18.62-13.166 36.049-27.857 52.122-43.927z" />
<glyph unicode="&#xe910;" d="M909.841 448.021c0-219.725-178.133-397.858-397.854-397.858-7.543 0-15.027 0.209-22.468 0.627 209.276 11.639 375.373 185.054 375.373 397.231 0 212.175-166.097 385.587-375.373 397.227 7.441 0.418 14.925 0.627 22.468 0.627 219.721 0 397.854-178.135 397.854-397.854z" />
<glyph unicode="&#xe911;" d="M512.862 424.098c-7.287 12.715-7.27 28.339 0.043 41.037l0.393 0.683c9.293 16.145 26.586 25.69 45.214 25.796 42.022 0.243 82.752 22.886 103.996 63.083 28.693 54.287 7.923 126.525-45.163 157.385-56.606 32.906-129.131 13.561-161.847-43.102-21.879-37.9-20.378-82.865 0.004-118.237 9.246-16.043 9.472-35.731 0.235-51.778-7.514-13.047-21.419-21.086-36.475-21.086h-2.217c-15.745 0-29.93 8.917-37.395 22.775-20.618 38.291-61.712 63.916-108.636 62.18-61.386-2.272-113.58-56.386-113.762-117.813-0.192-65.472 52.824-118.605 118.251-118.605 45.384 0 84.774 25.574 104.592 63.095 7.105 13.453 20.992 21.943 36.206 21.943h3.561c14.648 0 28.182-7.842 35.465-20.553 7.599-13.261 7.019-29.564-1.139-42.492-23.403-37.090-25.31-85.935-0.192-126.033 31.501-50.287 102.741-69.466 155.226-41.775 59.669 31.479 80.755 105.882 47.334 163.772-22.588 39.121-64.145 60.433-106.347 59.055-15.33-0.495-29.722 7.36-37.346 20.668z" />
<glyph unicode="&#xe912;" d="M565.111 424.098c-7.287 12.715-7.27 28.339 0.043 41.037l0.393 0.683c9.293 16.145 26.586 25.69 45.214 25.796 42.022 0.243 82.752 22.886 104 63.083 28.689 54.287 7.919 126.525-45.167 157.385-56.606 32.906-129.131 13.561-161.847-43.102-21.879-37.9-20.378-82.865 0.004-118.237 9.246-16.043 9.472-35.731 0.235-51.778-7.514-13.047-21.419-21.086-36.476-21.086h-2.214c-15.744 0-29.931 8.917-37.397 22.775-20.617 38.291-61.711 63.916-108.635 62.18-61.386-2.272-113.58-56.386-113.762-117.813-0.192-65.472 52.823-118.605 118.251-118.605 45.384 0 84.774 25.574 104.594 63.095 7.104 13.453 20.992 21.943 36.203 21.943h3.563c14.647 0 28.181-7.842 35.465-20.553 7.599-13.261 7.019-29.564-1.139-42.492-23.398-37.090-25.31-85.935-0.192-126.033 31.501-50.287 102.746-69.466 155.226-41.775 59.669 31.479 80.755 105.882 47.334 163.772-22.588 39.121-64.145 60.433-106.347 59.055-15.33-0.495-29.717 7.36-37.346 20.668z" />
<glyph unicode="&#xe913;" d="M512.004-63.838c282.688 0 511.855 229.163 511.855 511.855s-229.167 511.858-511.855 511.858c-282.692 0-511.858-229.167-511.858-511.858s229.167-511.855 511.858-511.855z" />
<glyph unicode="&#xe914;" d="M512.004 9.28c242.308 0 438.737 196.429 438.737 438.737 0 242.305-196.429 438.733-438.737 438.733-242.305 0-438.733-196.428-438.733-438.733 0-242.308 196.428-438.737 438.733-438.737z" />
<glyph unicode="&#xe915;" d="M314.564 327.369c3.531 3.533 8.385 5.589 13.531 5.589h466.819c8.529 0 12.796-10.295 6.767-16.324l-92.215-92.215c-3.533-3.533-8.384-5.589-13.534-5.589h-466.82c-8.531 0-12.797 10.295-6.767 16.324l92.219 92.215z" />
<glyph unicode="&#xe916;" d="M314.564 671.662c3.677 3.532 8.531 5.588 13.531 5.588h466.819c8.529 0 12.796-10.295 6.767-16.325l-92.215-92.216c-3.533-3.531-8.384-5.588-13.534-5.588h-466.82c-8.531 0-12.797 10.295-6.767 16.324l92.219 92.216z" />
<glyph unicode="&#xe917;" d="M709.461 500.621c-3.529 3.533-8.384 5.589-13.53 5.589h-466.82c-8.531 0-12.797-10.295-6.767-16.329l92.217-92.215c3.531-3.533 8.384-5.589 13.53-5.589h466.822c8.529 0 12.796 10.295 6.767 16.329l-92.22 92.215z" />
<glyph unicode="&#xe918;" glyph-name="star" d="M1021.248 567.884c-7.891 24.28-31.456 40.972-64.659 45.796l-263.302 38.262-117.754 238.59c-14.848 30.088-38.006 47.343-63.535 47.343s-48.685-17.256-63.533-47.343l-117.748-238.588-263.304-38.264c-33.205-4.824-56.771-21.514-64.661-45.795-7.888-24.28 1.366-51.637 25.39-75.053l190.527-185.715-44.979-262.246c-5.914-34.496 4.132-55.123 13.6-66.355 11.076-13.133 27.235-20.371 45.499-20.371 13.81 0 28.514 4.051 43.7 12.038l235.51 123.814 235.507-123.808c15.194-7.994 29.894-12.038 43.706-12.038h0.006c18.266 0 34.419 7.232 45.498 20.371 9.466 11.226 19.514 31.859 13.6 66.355l-44.986 262.24 190.528 185.713c24.019 23.418 33.274 50.772 25.389 75.053zM953.978 535.796l-201.824-196.725c-7.072-6.892-10.298-16.822-8.627-26.553l47.648-277.786c1.536-8.947 0.755-14.31 0.032-16.582-1.811 0-6.957 0.506-15.776 5.146l-249.468 131.149c-4.372 2.298-9.166 3.45-13.96 3.45s-9.59-1.152-13.96-3.45l-249.472-131.155c-8.808-4.627-13.954-5.139-15.766-5.139-0.726 2.272-1.504 7.635 0.030 16.582l47.645 277.786c1.668 9.733-1.558 19.663-8.628 26.556l-201.823 196.727c-6.508 6.344-9.030 11.144-9.774 13.404 1.93 1.39 6.792 3.792 15.79 5.1l278.916 40.532c9.772 1.42 18.218 7.558 22.588 16.412l124.73 252.734c4.020 8.148 7.806 12.030 9.726 13.438 1.92-1.408 5.708-5.29 9.728-13.44l124.732-252.732c4.371-8.854 12.819-14.992 22.586-16.412l278.912-40.532c8.998-1.306 13.862-3.708 15.789-5.1-0.749-2.262-3.27-7.064-9.773-13.409z" />
<glyph unicode="&#xe91a;" d="M512-63.995c282.321 0 512 229.679 512 512-28.113 679.238-995.98 679.052-1024 0 0-282.321 229.679-512 512-512z" />
<glyph unicode="&#xe91b;" d="M495.546 534.266c-102.123-105.657-102.029-66.955 0-172.52 9.1-9.1 23.808-9.1 32.908 0l69.818 69.795c9.007 8.657 9.030 24.25 0 32.908l-69.818 69.817c-9.1 9.099-23.808 9.099-32.908 0z" />
<glyph unicode="&#xe91c;" d="M355.916 478.087c8.727-8.727 24.18-8.727 32.908 0l123.181 123.181 123.183-123.181c8.657-9.007 24.25-9.030 32.908 0l69.818 69.817c9.1 9.1 9.1 23.808 0 32.908l-209.455 209.455c-9.1 9.1-23.808 9.1-32.908 0l-209.453-209.455c-9.1-9.1-9.1-23.808 0-32.908l69.818-69.817z" />
<glyph unicode="&#xe91d;" d="M854.272 464.472c-105.658 102.072-66.932 102.003-172.544 0-9.007-8.657-9.030-24.25 0-32.908l69.818-69.818c9.1-9.1 23.808-9.1 32.908 0l69.818 69.818c9.007 8.657 9.030 24.25 0 32.908z" />
<glyph unicode="&#xe91e;" d="M169.729 464.472c105.658 102.072 66.932 102.003 172.544 0 9.007-8.657 9.030-24.25 0-32.908l-69.818-69.818c-9.1-9.1-23.808-9.1-32.908 0l-69.818 69.818c-9.007 8.657-9.030 24.25 0 32.908z" />
<glyph unicode="&#xe91f;" d="M668.095 417.918c-8.727 8.727-24.18 8.727-32.908 0l-123.183-123.183-123.181 123.183c-8.657 9.007-24.25 9.030-32.908 0l-69.818-69.818c-9.1-9.1-9.1-23.808 0-32.908l209.453-209.455c9.1-9.1 23.808-9.1 32.908 0l209.455 209.455c9.1 9.1 9.1 23.808 0 32.908l-69.818 69.818z" />
<glyph unicode="&#xe920;" d="M1024 448c0-250.714-180.203-459.337-418.167-503.411-30.409-5.645-61.773-8.589-93.833-8.589-35.234 0-69.632 3.554-102.86 10.342-233.472 47.607-409.14 254.123-409.14 501.658 0 136.484 53.416 260.534 140.496 352.298 5.036 5.328 10.198 10.532 15.464 15.632 92.14 89.192 217.674 144.070 356.040 144.070 138.368 0 263.902-54.878 356.036-144.070 2.176-2.090 4.326-4.222 6.46-6.352 92.39-92.6 149.504-220.434 149.504-361.578z" />
<glyph unicode="&#xe921;" d="M605.824 524.326v114.102h268.663v177.488h-733.999v-177.486h268.644v-114.544c-217.004-11.093-379.57-56.567-379.57-110.989 0-54.417 162.566-99.891 379.57-110.989v-355.58c33.227-6.793 67.625-10.342 102.859-10.342 32.060 0 63.428 2.944 93.833 8.589v356.894c221.517 10.283 388.599 56.26 388.599 111.428 0 55.172-167.083 101.146-388.599 111.428zM511.991 342.763c-242.061 0-438.291 36.467-438.291 81.463 0 38.409 143.004 70.613 335.434 79.202v-130.466c32.623-4.702 65.494-7.061 98.347-7.061 32.87 0 65.741 2.359 98.347 7.061v130.863c196.962-8.004 344.439-40.58 344.439-79.599-0.004-44.992-196.237-81.463-438.276-81.463z" />
<glyph unicode="&#xe922;" d="M511.991-29.858c263.919 0 477.867 213.948 477.867 477.867s-213.948 477.866-477.867 477.866c-263.918 0-477.866-213.948-477.866-477.866s213.948-477.867 477.866-477.867z" />
<glyph unicode="&#xe923;" d="M511.996 38.426c226.214 0 409.6 183.381 409.6 409.6 0 226.215-183.386 409.6-409.6 409.6-226.216 0-409.6-183.384-409.6-409.6 0-226.219 183.384-409.6 409.6-409.6z" />
<glyph unicode="&#xe924;" d="M679.078 410.334c-0.725 0.047-164.919-97.254-167.070-98.086-0.482 0.277-166.116 98.308-166.904 98.21 0.401-0.589 166.793-235.524 166.904-235.524 0.115 0 167.070 235.401 167.070 235.401z" />
<glyph unicode="&#xe925;" d="M512.090 721.083l-166.444-278.378 166.444-98.594 166.451 98.594-166.451 278.378z" />
<glyph unicode="&#xe926;" d="M512 960c282.77 0 512-229.23 512-512s-229.23-512-512-512c-282.77 0-512 229.23-512 512s229.23 512 512 512z" />
<glyph unicode="&#xe927;" d="M737.024 511.36c10.048 67.072-41.054 103.136-110.878 127.2l22.652 90.88-55.292 13.76-22.084-88.48c-14.528 3.648-29.44 7.040-44.318 10.432l22.238 89.056-55.296 13.792-22.656-90.848c-12.032 2.752-23.868 5.44-35.324 8.32l0.064 0.288-76.29 19.040-14.72-59.072c0 0 41.056-9.408 40.192-9.984 22.4-5.6 26.432-20.416 25.76-32.192l-25.792-103.52c1.536-0.384 3.52-0.96 5.76-1.822l-5.856 1.438-36.16-145.024c-2.752-6.784-9.696-16.99-25.376-13.12 0.576-0.798-40.192 10.018-40.192 10.018l-27.456-63.3 72-17.95c13.376-3.362 26.496-6.878 39.392-10.176l-22.88-91.904 55.264-13.76 22.656 90.88c15.102-4.062 29.758-7.838 44.094-11.422l-22.592-90.496 55.3-13.764 22.878 91.712c94.336-17.856 165.248-10.654 195.102 74.658 24.064 68.672-1.182 108.318-50.816 134.144 36.16 8.32 63.36 32.094 70.626 81.216zM610.624 334.144c-17.058-68.706-132.736-31.552-170.24-22.242l30.4 121.762c37.504-9.374 157.73-27.904 139.84-99.52zM627.742 512.35c-15.582-62.494-111.838-30.72-143.040-22.942l27.52 110.4c31.202-7.776 131.78-22.272 115.52-87.458z" />
<glyph unicode="&#xe928;" glyph-name="star-active" d="M1021.35 587.165c-6.707 20.735-25.094 35.462-46.854 37.423l-295.558 26.837-116.874 273.55c-8.618 20.048-28.243 33.025-50.049 33.025s-41.431-12.977-50.049-33.072l-116.872-273.503-295.607-26.837c-21.72-2.008-40.064-16.688-46.807-37.423s-0.516-43.478 15.915-57.814l223.408-195.93-65.878-290.189c-4.82-21.338 3.461-43.392 21.165-56.192 9.516-6.874 20.65-10.374 31.876-10.374 9.68 0 19.282 2.611 27.9 7.763l254.948 152.378 254.853-152.378c18.65-11.219 42.157-10.195 59.827 2.611 17.709 12.838 25.984 34.899 21.165 56.192l-65.882 290.189 223.411 195.891c16.429 14.376 22.701 37.080 15.962 57.853z" />
<glyph unicode="&#xe932;" glyph-name="smartphone" horiz-adv-x="1047" d="M617.5 874.659h-102.4c-14.147 0-25.6-11.452-25.6-25.6s11.453-25.6 25.6-25.6h102.4c14.147 0 25.6 11.452 25.6 25.6s-11.453 25.6-25.6 25.6zM728.439 960h-409.6c-56.455 0-102.4-45.944-102.4-102.4v-819.2c0-56.455 45.945-102.4 102.4-102.4h409.6c56.457 0 102.4 45.945 102.4 102.4v819.2c0 56.456-45.943 102.4-102.4 102.4zM779.639 38.4c0-28.281-22.919-51.2-51.2-51.2h-409.6c-28.279 0-51.2 22.919-51.2 51.2v819.2c0 28.28 22.921 51.2 51.2 51.2h409.6c28.281 0 51.2-22.92 51.2-51.2v-819.2zM523.641 21.327c28.276 0 51.2 22.924 51.2 51.2s-22.924 51.2-51.2 51.2c-28.279 0-51.2-22.924-51.2-51.2s22.921-51.2 51.2-51.2zM429.768 823.459c14.138 0 25.6 11.462 25.6 25.6s-11.462 25.6-25.6 25.6c-14.138 0-25.6-11.462-25.6-25.6s11.462-25.6 25.6-25.6z" />
<glyph unicode="&#xe933;" glyph-name="facebook-f" horiz-adv-x="939" d="M645.5 396.783l20.476 148.256h-128.030v96.208c0 40.56 17.886 80.096 75.226 80.096h58.206v126.224c0 0-52.821 10.016-103.322 10.016-105.434 0-174.354-71.008-174.354-199.552v-112.992h-117.201v-148.256h117.201v-358.4h144.244v358.4h107.554z" />
<glyph unicode="&#xe934;" glyph-name="instagram" d="M512.107 658.060c-116.231 0-209.984-93.754-209.984-209.984 0-116.233 93.754-209.988 209.984-209.988 116.233 0 209.988 93.756 209.988 209.988 0 116.23-93.756 209.984-209.988 209.984zM512.107 311.556c-75.11 0-136.517 61.222-136.517 136.521 0 75.294 61.223 136.516 136.517 136.516 75.298 0 136.521-61.222 136.521-136.516 0-75.298-61.406-136.521-136.521-136.521zM779.661 666.65c0-27.231-21.931-48.978-48.977-48.978-27.23 0-48.977 21.93-48.977 48.978s21.931 48.978 48.977 48.978c27.046 0 48.977-21.931 48.977-48.978zM918.737 616.94c-3.106 65.609-18.091 123.725-66.155 171.607-47.885 47.882-106.001 62.868-171.61 66.158-67.618 3.838-270.294 3.838-337.913 0-65.426-3.107-123.543-18.093-171.607-65.975s-62.868-105.998-66.158-171.607c-3.838-67.619-3.838-270.295 0-337.913 3.107-65.613 18.093-123.729 66.158-171.61s105.998-62.865 171.607-66.155c67.619-3.84 270.295-3.84 337.913 0 65.609 3.106 123.725 18.091 171.61 66.155 47.881 47.881 62.865 105.997 66.155 171.61 3.84 67.618 3.84 270.11 0 337.73zM831.381 206.656c-14.255-35.823-41.852-63.415-77.854-77.854-53.914-21.385-181.841-16.448-241.421-16.448-59.575 0-187.688-4.753-241.418 16.448-35.82 14.255-63.416 41.852-77.853 77.854-21.382 53.914-16.448 181.841-16.448 241.421 0 59.575-4.752 187.687 16.448 241.417 14.255 35.82 41.851 63.416 77.853 77.854 53.913 21.382 181.843 16.448 241.418 16.448 59.58 0 187.691 4.751 241.421-16.448 35.819-14.255 63.415-41.851 77.854-77.854 21.38-53.913 16.448-181.842 16.448-241.417 0-59.58 4.932-187.691-16.448-241.421z" />
<glyph unicode="&#xe935;" glyph-name="twitter" d="M837.41 589.352c0.521-7.277 0.521-14.555 0.521-21.832 0-221.954-168.934-477.693-477.694-477.693-95.124 0-183.488 27.55-257.82 75.371 13.515-1.562 26.509-2.082 40.544-2.082 78.488 0 150.742 26.509 208.439 71.731-73.812 1.562-135.668 49.903-156.98 116.437 10.397-1.557 20.792-2.598 31.709-2.598 15.074 0 30.149 2.082 44.183 5.717-76.93 15.595-134.629 83.17-134.629 164.774v2.082c22.351-12.476 48.343-20.275 75.89-21.312-45.223 30.148-74.85 81.608-74.85 139.826 0 31.187 8.315 59.776 22.871 84.727 82.648-101.88 206.881-168.413 346.186-175.692-2.598 12.475-4.16 25.469-4.16 38.464 0 92.525 74.85 167.895 167.898 167.895 48.337 0 92.002-20.272 122.671-53.019 37.943 7.277 74.33 21.312 106.56 40.544-12.48-38.986-38.989-71.733-73.813-92.524 33.788 3.637 66.534 12.995 96.683 25.989-22.869-33.265-51.456-62.893-84.207-86.805z" />
<glyph unicode="&#xe936;" glyph-name="youtube" d="M904.499 665.042c-9.421 35.475-37.18 63.414-72.427 72.895-63.885 17.229-320.055 17.229-320.055 17.229s-256.17 0-320.056-17.229c-35.246-9.483-63.005-37.42-72.426-72.895-17.118-64.3-17.118-198.457-17.118-198.457s0-134.157 17.118-198.46c9.422-35.473 37.181-62.246 72.426-71.731 63.886-17.229 320.056-17.229 320.056-17.229s256.171 0 320.055 17.229c35.247 9.485 63.006 36.258 72.427 71.731 17.118 64.303 17.118 198.46 17.118 198.46s0 134.156-17.118 198.457zM428.233 344.781v243.609l214.11-121.808-214.11-121.801z" />
</font>
</defs>
</svg>
